PathFileType	4	(X/Y/Z)	C:\Users\Basilio\Documents\Thesis Gigler\squatting_fais\c3dfiles\077\SLS_front_pre2\markers_experimental.trc
DataRate	CameraRate	NumFrames	NumMarkers	Units	OrigDataRate	OrigDataStartFrame	OrigNumFrames
200.000000	200.000000	4	60	mm	200.000000	1037	2075
Frame#	Time	FHD			LBHD			RBHD			C7			T10			CLAV			LSHO			LUUPA			LMUPA			LDUPA			LLEP			LMEP			LRAD			LUL			LRFIN			RSHO			RUPA1			RMUPA			RDUPA			RLEP			RMEP			RUL			RUFIN			LASI			RASI			USACR			LSACR			RSACR			LTHI1			LTHI2			LTHI3			LTHI4			LLFC			LMFC			LTIB1			LTIB2			LTIB3			LTIB4			LLMAL			LHEE			LMT1			LMT2			LMT5			RTHI			RTHI2			RTHI3			RTHI4			RLFC			RMFC			RTIB1			RTIB2			RTIB3			RTIB4			RLMAL			RMMAL			RHEE			RMT1			RMT2			RMT5			RRAD			
		X1	Y1	Z1	X2	Y2	Z2	X3	Y3	Z3	X4	Y4	Z4	X5	Y5	Z5	X6	Y6	Z6	X7	Y7	Z7	X8	Y8	Z8	X9	Y9	Z9	X10	Y10	Z10	X11	Y11	Z11	X12	Y12	Z12	X13	Y13	Z13	X14	Y14	Z14	X15	Y15	Z15	X16	Y16	Z16	X17	Y17	Z17	X18	Y18	Z18	X19	Y19	Z19	X20	Y20	Z20	X21	Y21	Z21	X22	Y22	Z22	X23	Y23	Z23	X24	Y24	Z24	X25	Y25	Z25	X26	Y26	Z26	X27	Y27	Z27	X28	Y28	Z28	X29	Y29	Z29	X30	Y30	Z30	X31	Y31	Z31	X32	Y32	Z32	X33	Y33	Z33	X34	Y34	Z34	X35	Y35	Z35	X36	Y36	Z36	X37	Y37	Z37	X38	Y38	Z38	X39	Y39	Z39	X40	Y40	Z40	X41	Y41	Z41	X42	Y42	Z42	X43	Y43	Z43	X44	Y44	Z44	X45	Y45	Z45	X46	Y46	Z46	X47	Y47	Z47	X48	Y48	Z48	X49	Y49	Z49	X50	Y50	Z50	X51	Y51	Z51	X52	Y52	Z52	X53	Y53	Z53	X54	Y54	Z54	X55	Y55	Z55	X56	Y56	Z56	X57	Y57	Z57	X58	Y58	Z58	X59	Y59	Z59	X60	Y60	Z60	

1038	5.185	-320.0832824707032	1853.489624023438	-1046.223510742188	-452.4915161132814	1738.93798828125	-1119.535766601563	-460.0184631347657	1729.723754882813	-973.2769775390627	-492.9808654785157	1588.030151367188	-1062.730712890625	-457.6756286621095	1248.792724609375	-1051.078125	-325.3630981445313	1559.640991210938	-1052.861694335938	-346.7574157714844	1597.85791015625	-1226.578002929688	-168.9461364746094	1547.326293945313	-1322.945678710938	-140.7760314941407	1579.588500976563	-1296.535034179688	-99.42562103271487	1545.358642578125	-1326.009765625	-35.77718353271485	1556.02783203125	-1319.3896484375	-31.08057212829591	1486.733520507813	-1289.527587890625	251.0228729248047	1588.126098632813	-1190.413330078125	259.7814941406251	1591.682373046875	-1270.024291992188	347.2553100585938	1618.224243164063	-1194.63916015625	-352.7120971679688	1592.181884765625	-889.1546630859377	-195.4567260742188	1559.1484375	-776.8218994140627	-168.7271881103516	1586.033813476563	-809.8293457031252	-125.5823516845703	1561.55029296875	-773.8306274414065	-59.97327041625978	1569.326171875	-781.878845214844	-53.49496459960939	1494.988037109375	-806.6000976562502	235.1890258789063	1606.385864257813	-798.905456542969	321.7812194824219	1615.199951171875	-877.350036621094	-235.4700775146485	1067.98291015625	-1165.367065429688	-261.9143066406251	1119.981689453125	-887.9726562500002	-451.7708740234376	1141.346557617188	-1042.228271484375	-451.9702148437501	1109.635986328125	-1068.464965820313	-459.684295654297	1109.858154296875	-1013.454406738281	-303.3702697753907	846.215026855469	-1196.933959960938	-276.0747680664063	767.8494262695314	-1189.182006835938	-227.3008880615235	769.260437011719	-1187.797729492188	-304.0882568359376	717.1206665039064	-1169.636352539063	-278.4910278320313	570.3679809570314	-1138.105346679688	-258.8699340820313	556.6885375976564	-1005.148986816406	-259.3935546875001	348.8849182128907	-1052.726440429688	-297.6599426269532	302.4677734375001	-1118.085327148438	-264.3056030273438	298.8918151855469	-1084.915283203125	-277.7958679199219	224.1584930419922	-1046.079467773438	-351.5469665527344	109.4864959716797	-1080.93505859375	-405.8215332031251	80.38602447509767	-1025.513305664063	-195.2260131835938	55.50607681274415	-1012.418029785156	-190.9675598144532	56.99021148681642	-1054.752075195313	-318.1693420410157	125.3200988769532	-998.2967529296877	-97.21875000000003	882.5323486328127	-790.6026611328127	-30.08009719848634	883.2881469726565	-789.6066894531252	-11.43127632141113	911.4681396484377	-797.459167480469	17.3453598022461	815.3452148437502	-796.6047973632815	64.74023437500001	770.031433105469	-793.9859008789065	104.7618942260742	778.7951660156252	-917.8118896484377	191.6329193115235	696.8770141601564	-799.7468872070315	189.5378875732422	595.4296264648439	-767.6369018554689	226.7505950927735	618.8677368164064	-784.660827636719	261.1979980468751	588.4236450195314	-821.7900390625002	321.9323425292969	405.3489379882814	-776.5432128906252	342.6139526367188	431.4146423339845	-861.3616943359377	308.0572204589844	332.7459716796876	-835.0578613281252	481.8611145019532	476.438446044922	-806.535095214844	474.4700927734376	475.0213623046876	-768.5269775390627	470.1714477539064	445.6052551269532	-722.2710571289064	226.0925598144532	1590.872314453125	-876.813903808594	
1039	5.19	-320.1039428710938	1853.5302734375	-1046.667846679688	-452.5149230957032	1738.719970703125	-1120.022216796875	-460.051971435547	1729.73779296875	-973.7539062500002	-493.0498352050782	1587.875244140625	-1063.1259765625	-457.6292114257814	1248.661254882813	-1051.409790039063	-325.4219055175782	1559.605102539063	-1053.253784179688	-346.7963867187501	1597.81298828125	-1226.987426757813	-168.775390625	1547.244506835938	-1323.272338867188	-140.5240173339844	1579.4345703125	-1296.807495117188	-99.45278167724612	1545.322998046875	-1326.280151367188	-35.69539260864259	1555.8720703125	-1319.687255859375	-31.17252922058106	1486.595825195313	-1290.098022460938	251.1047515869141	1587.900634765625	-1190.607177734375	259.8959350585938	1591.508178710938	-1270.2021484375	347.5722961425782	1618.386596679688	-1194.479858398438	-352.7204589843751	1592.125854492188	-889.506042480469	-195.371810913086	1558.953002929688	-777.763122558594	-168.7106628417969	1586.125732421875	-810.1398925781252	-125.6545867919922	1561.484375	-774.2445068359377	-59.92267227172853	1569.402954101563	-782.2305297851565	-53.62203598022462	1494.920043945313	-807.0569458007815	235.1406707763672	1606.30224609375	-799.362976074219	321.8118591308594	1615.097778320313	-877.8905029296877	-235.2413177490235	1068.098022460938	-1165.689331054688	-261.9547119140626	1120.134521484375	-888.3532714843752	-451.6406860351564	1141.1396484375	-1042.603271484375	-451.8030700683595	1109.509155273438	-1068.857299804688	-459.5126953125001	1109.566650390625	-1013.85205078125	-303.1964416503907	846.194763183594	-1197.101684570313	-276.0737915039063	767.7770385742189	-1189.369750976563	-227.2675933837891	769.1923828125002	-1188.01611328125	-304.0367126464844	717.1366577148439	-1169.796997070313	-278.5002441406251	570.3472900390626	-1138.170043945313	-258.8062438964844	556.6890258789064	-1005.258605957031	-259.3641052246094	348.8899536132813	-1052.769653320313	-297.6642456054688	302.4431457519532	-1118.111572265625	-264.4557495117188	299.3947753906251	-1084.896484375	-277.7970275878907	224.2086181640626	-1046.115356445313	-351.5691528320313	109.4970092773438	-1080.938720703125	-405.8215637207032	80.35525512695314	-1025.52001953125	-195.2026977539063	55.46961593627931	-1012.397155761719	-191.0099487304688	57.03439331054689	-1054.7919921875	-318.1709899902344	125.3378067016602	-998.2622680664065	-95.94995117187501	884.153747558594	-790.8413696289065	-28.69723892211915	885.2843017578127	-789.6004028320315	-10.594069480896	913.1993408203127	-797.7749633789065	18.52555465698243	817.1128540039065	-796.9121093750002	66.45508575439455	772.3026123046877	-794.1452636718752	106.2548599243164	781.1251220703127	-917.8169555664065	193.8329315185547	699.5831298828126	-800.163024902344	191.9581756591797	598.0960083007814	-767.7981567382814	229.0568084716797	621.7979736328126	-784.9661865234377	263.6216125488282	591.1856079101564	-822.031921386719	324.9862670898438	408.5614318847657	-776.589782714844	346.9038696289063	434.2691040039064	-861.211364746094	311.2708435058594	335.8517456054688	-835.0777587890627	484.7880859375001	480.3170776367189	-807.215026855469	477.3688354492189	478.9597778320314	-769.1800537109377	473.2193603515626	449.5087280273439	-722.8734741210939	226.076889038086	1590.804565429688	-877.455261230469	
1040	5.195	-320.4516601562501	1853.018310546875	-1047.593627929688	-452.5676574707032	1738.590454101563	-1120.525146484375	-460.029022216797	1729.721557617188	-974.2934570312502	-493.1922912597657	1587.624755859375	-1063.561279296875	-457.5706481933595	1248.581787109375	-1051.74072265625	-325.4178771972657	1559.43310546875	-1053.638916015625	-346.5955505371094	1597.547119140625	-1227.282592773438	-168.780990600586	1547.121337890625	-1323.629516601563	-140.3778839111328	1579.35986328125	-1297.084594726563	-99.40712738037112	1545.189208984375	-1326.44384765625	-35.53813552856446	1555.583862304688	-1320.00244140625	-31.17308235168458	1486.52490234375	-1290.562133789063	251.2088623046876	1587.677612304688	-1190.753051757813	259.7875366210938	1591.231689453125	-1270.393188476563	347.4403991699219	1617.870483398438	-1194.39453125	-352.8298339843751	1592.010620117188	-889.9610595703127	-195.4606323242188	1559.2021484375	-777.273132324219	-168.6602020263672	1586.096801757813	-810.4361572265627	-125.7102661132813	1561.421142578125	-774.6750488281252	-60.03894424438478	1569.279418945313	-782.6647949218752	-53.70803451538087	1494.76953125	-807.529724121094	235.0781860351563	1606.365234375	-799.848327636719	321.5958251953126	1615.025512695313	-878.335388183594	-235.0190429687501	1068.175903320313	-1165.92529296875	-261.8935546875001	1120.272705078125	-888.704284667969	-451.4611816406251	1140.945434570313	-1042.992065429688	-451.5274047851564	1109.332275390625	-1069.266967773438	-459.3287963867189	1109.445190429688	-1014.223327636719	-303.1350402832032	846.139587402344	-1197.297607421875	-275.9990844726563	767.6218872070314	-1189.617065429688	-227.2990112304688	769.2258911132815	-1188.301513671875	-303.8653564453126	717.0845336914064	-1169.878540039063	-278.4677124023438	570.3588256835939	-1138.2939453125	-258.7525329589844	556.7581176757814	-1005.356628417969	-259.2849731445313	348.8806457519532	-1052.760375976563	-297.5518493652344	302.4533691406251	-1118.112426757813	-264.2900695800782	298.9311523437501	-1084.936401367188	-277.8312377929688	224.1926269531251	-1046.094360351563	-351.6743774414063	109.4828796386719	-1080.92529296875	-405.8102111816407	80.39564514160158	-1025.49609375	-195.2113342285157	55.43224716186525	-1012.402648925781	-191.060531616211	56.96892547607423	-1054.775756835938	-318.2045288085938	125.3686904907227	-998.2105102539065	-94.95059967041017	885.271423339844	-791.846374511719	-27.55358886718751	886.9267578125002	-790.1942138671877	-9.571462631225588	915.0416259765627	-798.208923339844	20.43519973754883	819.5828247070315	-796.7468872070315	68.2754592895508	774.5518188476565	-794.2874145507815	107.8628005981446	783.1822509765627	-918.1032714843752	195.6664428710938	702.3541259765626	-800.318786621094	194.3268127441407	600.7400512695314	-767.8478393554689	230.9468231201172	624.7185058593751	-785.3535766601565	265.8076171875001	594.1996459960939	-822.480407714844	327.9098815917969	411.7817687988282	-776.6597900390627	348.9151306152344	437.1361694335939	-861.653503417969	314.2776489257813	338.7586364746094	-834.9453735351565	487.2600708007814	483.739959716797	-808.0328369140627	480.1236267089845	482.4368896484376	-769.8953857421877	476.1728515625001	453.2376403808595	-723.5572509765626	225.9428710937501	1590.580688476563	-877.8770141601565	
1041	5.2	-320.4495849609376	1853.187622070313	-1048.000732421875	-452.6515197753907	1738.924682617188	-1121.016723632813	-460.006805419922	1729.703979492188	-974.5908203125002	-493.1972045898439	1587.536010742188	-1064.013427734375	-457.4608154296876	1248.480834960938	-1052.0771484375	-325.4768676757813	1559.271850585938	-1054.03857421875	-346.7159423828126	1597.398193359375	-1227.674560546875	-168.7796630859375	1547.00537109375	-1323.972900390625	-140.5484161376953	1579.312133789063	-1297.380737304688	-99.593376159668	1545.154907226563	-1326.724609375	-35.52128219604493	1555.509155273438	-1320.359252929688	-31.22238349914551	1486.326782226563	-1290.662353515625	251.3320007324219	1587.47216796875	-1190.932739257813	259.7293395996094	1590.983520507813	-1270.571411132813	348.3520202636719	1618.013916015625	-1195.02392578125	-352.8570556640626	1591.96875	-890.299743652344	-195.4468688964844	1559.103881835938	-777.6879882812502	-168.671142578125	1586.0927734375	-810.6909179687502	-125.691146850586	1561.41650390625	-775.0009765625002	-60.09420013427736	1569.113037109375	-783.0904541015627	-53.71327590942384	1494.8046875	-807.902282714844	235.1384429931641	1606.321655273438	-800.3017578125002	321.6605834960938	1614.990234375	-878.8186645507815	-234.8653106689454	1068.079345703125	-1166.181518554688	-261.8197326660157	1120.462524414063	-888.9468383789065	-451.3436279296876	1140.687255859375	-1043.364135742188	-451.3885192871095	1109.138793945313	-1069.610107421875	-459.224090576172	1109.269775390625	-1014.524963378906	-303.0023498535157	846.1189575195315	-1197.466064453125	-275.8752746582032	767.5836181640626	-1189.767700195313	-227.0335693359376	769.122253417969	-1188.379516601563	-303.7946166992188	717.0623779296876	-1170.001586914063	-278.5306396484376	570.3804321289064	-1138.385620117188	-258.7137451171876	556.7034301757814	-1005.433959960938	-259.2259826660157	348.9325256347657	-1052.684936523438	-297.4826965332032	302.4603271484376	-1118.094970703125	-264.0991210937501	298.8306884765626	-1084.83544921875	-277.7624816894532	224.2687530517579	-1046.053955078125	-351.6249084472657	109.5575790405274	-1080.911254882813	-405.822723388672	80.42411041259767	-1025.467041015625	-195.2182159423829	55.45964813232423	-1012.310974121094	-191.0800476074219	57.04822921752931	-1054.784057617188	-318.2104187011719	125.400619506836	-998.182556152344	-93.79776000976564	886.9219360351565	-792.1878051757815	-26.60102653503419	888.5268554687502	-790.5872192382815	-8.619338035583498	916.6556396484377	-798.2495117187502	21.8066635131836	821.518737792969	-797.1265258789065	69.78834533691408	776.829772949219	-794.549255371094	109.0872344970703	785.4868164062502	-918.451843261719	197.8096923828126	704.8652954101564	-800.8115844726565	196.5230255126954	603.3050537109376	-768.2733154296877	233.4831085205079	627.4110717773439	-785.6441650390627	267.9431457519532	596.9288940429689	-822.727966308594	330.7530822753907	414.8847961425782	-776.7969970703127	351.7800598144532	440.4256286621095	-861.8924560546877	317.1584472656251	341.7127380371094	-834.7197265625002	489.780487060547	487.7943725585939	-808.9752197265627	481.9168090820314	486.3023986816407	-771.2080688476565	478.9163818359376	456.7984313964845	-724.2274780273439	226.0350799560547	1590.658081054688	-878.4511718750002	
